<?xml version="1.0" encoding="utf-8"?>
<!-- Generator: Adobe Illustrator 22.0.1, SVG Export Plug-In . SVG Version: 6.00 Build 0)  -->
<svg version="1.1" id="Livello_1" xmlns="http://www.w3.org/2000/svg" xmlns:xlink="http://www.w3.org/1999/xlink" x="0px" y="0px"
	 viewBox="0 0 640 512" style="enable-background:new 0 0 640 512;" xml:space="preserve">
<style type="text/css">
	.st0{fill:#FFFFFF;}
</style>
<path class="st0" d="M96,64c0-17.7,14.3-32,32-32h320h64c70.7,0,128,57.3,128,128s-57.3,128-128,128h-32c0,53-43,96-96,96H192
	c-53,0-96-43-96-96V64z M480,224h32c35.3,0,64-28.7,64-64s-28.7-64-64-64h-32V224z M32,416h512c17.7,0,32,14.3,32,32s-14.3,32-32,32
	H32c-17.7,0-32-14.3-32-32S14.3,416,32,416z"/>
</svg>
