<?xml version="1.0" encoding="utf-8"?>
<!-- Generator: Adobe Illustrator 22.0.1, SVG Export Plug-In . SVG Version: 6.00 Build 0)  -->
<svg version="1.1" id="Livello_1" xmlns="http://www.w3.org/2000/svg" xmlns:xlink="http://www.w3.org/1999/xlink" x="0px" y="0px"
	 viewBox="0 0 448 512" style="enable-background:new 0 0 448 512;" xml:space="preserve">
<style type="text/css">
	.st0{fill:#FFFFFF;}
</style>
<path class="st0" d="M171.7,232.8c2.2,0,4.1-1.3,5-3.3c2.2-9.8,7.4-18.6,14.9-25.3c1.2-0.8,1.7-2.5,1.7-4.1
	c-0.1-1.4-0.9-2.6-2.1-3.3L74.4,128.5L149,85c3-1.7,4.9-4.8,5-8.3c0.1-3.5-1.9-6.7-5-8.3l-22.4-12.8c-3-1.7-6.6-1.7-9.5,0l-100.2,58
	c-3,1.7-4.9,4.8-5,8.3V237c-0.1,3.5,1.9,6.7,5,8.3l22.4,12.8c1.5,0.9,3.2,1.3,5,1.2c2.4,0.1,4.8-0.8,6.6-2.5c1.8-1.9,2.8-4.4,2.9-7
	v-85.3l115.9,67.9C170.3,232.7,171,232.8,171.7,232.8z M323.3,377.7c-1.7,0.1-3.4,0.5-5,1.2L243.8,422V287.9c0-2.9-2.9-5.8-6.2-4.6
	c-9.4,2.8-19.5,3-29,0.4c-2.6-0.7-5.3,0.7-6,3.3c-0.1,0.4-0.2,0.8-0.2,1.2v133.3l-74.5-43.1c-1.5-0.9-3.2-1.3-5-1.2
	c-5.2,0.1-9.5,4.3-9.5,9.5v26.1c-0.1,3.5,1.9,6.7,5,8.3l100.2,57.6c1.5,0.9,3.2,1.3,5,1.2c1.7,0,3.4-0.4,5-1.2l100.2-57.6
	c3-1.7,4.9-4.8,5-8.3v-26.1C332.8,382.3,328.2,377.7,323.3,377.7z M286,78c12.7,0,23-10.3,23-23s-10.3-23-23-23s-23,10.3-23,23
	S273.3,78,286,78z M349.6,67.9c-12.7,0-23,10.3-23,23s10.3,23,23,23s23-10.3,23-23C372.6,78.2,362.3,67.9,349.6,67.9L349.6,67.9z
	 M412.8,151.6c12.7,0,23-10.3,23-23s-10.3-23-23-23s-23,10.3-23,23l0,0C389.8,141.3,400.1,151.6,412.8,151.6z M349.6,142.4
	c-12.7,0-23,10.3-23,23s10.3,23,23,23s23-10.3,23-23l0,0C372.6,152.7,362.3,142.4,349.6,142.4C349.6,142.4,349.6,142.4,349.6,142.4
	L349.6,142.4z M286,225.6c12.7,0,23-10.3,23-23s-10.3-23-23-23s-23,10.3-23,23l0,0C263,215.3,273.3,225.6,286,225.6
	C286,225.6,286,225.6,286,225.6L286,225.6z M223.9,262c12.7,0,23-10.3,23-23s-10.3-23-23-23s-23,10.3-23,23l0,0
	C200.9,251.7,211.2,262,223.9,262C223.9,262,223.9,262,223.9,262L223.9,262z M412.8,179.6c-12.7,0-23,10.3-23,23s10.3,23,23,23
	s23-10.3,23-23l0,0C435.8,189.9,425.5,179.6,412.8,179.6L412.8,179.6z M412.8,251.9c-12.7,0-23,10.3-23,23s10.3,23,23,23
	s23-10.3,23-23l0,0C435.8,262.2,425.5,251.9,412.8,251.9L412.8,251.9z"/>
</svg>
