<?xml version="1.0" encoding="utf-8"?>
<!-- Generator: Adobe Illustrator 22.0.1, SVG Export Plug-In . SVG Version: 6.00 Build 0)  -->
<svg version="1.1" id="Livello_1" xmlns="http://www.w3.org/2000/svg" xmlns:xlink="http://www.w3.org/1999/xlink" x="0px" y="0px"
	 viewBox="0 0 512 512" style="enable-background:new 0 0 512 512;" xml:space="preserve">
<style type="text/css">
	.st0{fill:#FFFFFF;}
</style>
<path class="st0" d="M352,320c88.4,0,160-71.6,160-160c0-15.3-2.2-30.1-6.2-44.2c-3.1-10.8-16.4-13.2-24.3-5.3l-76.8,76.8
	c-3,3-7.1,4.7-11.3,4.7H336c-8.8,0-16-7.2-16-16v-57.4c0-4.2,1.7-8.3,4.7-11.3l76.8-76.8c7.9-7.9,5.4-21.2-5.3-24.3
	C382.1,2.2,367.3,0,352,0c-88.4,0-160,71.6-160,160c0,19.1,3.4,37.5,9.5,54.5L19.9,396.1C7.2,408.8,0,426.1,0,444.1
	C0,481.6,30.4,512,67.9,512c18,0,35.3-7.2,48-19.9l181.6-181.6C314.5,316.7,332.9,320,352,320z M80,408c13.3,0,24,10.7,24,24
	s-10.7,24-24,24s-24-10.7-24-24S66.7,408,80,408z"/>
</svg>
